<svg width="976" height="706" xmlns="http://www.w3.org/2000/svg">

 <metadata id="imagebot_86">image/svg+xml</metadata>
 <g id="imagebot_85" label="Layer 1">
  <title label="Layer 1"/>
 </g>
 <g id="imagebot_1">
  <path transform="translate(2.28271e-7 2.28271e-7)" d="M27.26432,621.90672L917.78544,621.90672L917.78544,650.36245L27.26432,650.36245L27.26432,621.90672z" id="imagebot_84" fill="#d7d8d6"/>
  <path transform="translate(2.28271e-7 2.28271e-7)" d="M15.26486,4.00861L953.6834,4.00861L953.6834,618.19314L15.26486,618.19314L15.26486,4.00861z" id="imagebot_83" fill="#f3b674"/>
  <path transform="translate(2.28271e-7 2.28271e-7)" d="M15.26486,4.00861L953.6834,4.00861L953.6834,618.19314L15.26486,618.19314L15.26486,4.00861z" id="imagebot_82" stroke-linejoin="round" stroke-linecap="round" stroke-width="8.01722" stroke="#1a1919" fill-opacity="0"/>
  <path transform="translate(2.28271e-7 2.28271e-7)" d="M40.6548,20.97206L928.29345,20.97206L928.29345,581.14773L40.6548,581.14773L40.6548,20.97206z" id="imagebot_81" fill="#333333"/>
  <path fill="#019e01" d="M 40.70546510906171 19.018940228271006 L 931.9930351090617 19.018940228271006 L 931.9930351090617 579.194610228271 L 40.70546510906171 579.194610228271 L 40.70546510906171 19.018940228271006 z" id="imagebot_80" stroke-linejoin="round" stroke-linecap="round" stroke-width="5.02175" stroke="#1a1919"/>
  <path transform="translate(2.28271e-7 2.28271e-7)" d="M966.19758,627.60139L8.28212,627.60139L4.00861,600.80786L971.8847,600.80786L966.19758,627.60139" id="imagebot_79" fill="#83653f"/>
  <path transform="translate(2.28271e-7 2.28271e-7)" d="M966.19758,627.60139L8.28212,627.60139L4.00861,600.80786L971.8847,600.80786L966.19758,627.60139z" id="imagebot_78" stroke-linejoin="round" stroke-linecap="round" stroke-width="8.01722" stroke="#1a1919" fill-opacity="0"/>
  <path transform="translate(2.28271e-7 2.28271e-7)" d="M159.50443,539.88405L263.28633,539.88405L263.28633,591.77625L159.50443,591.77625L159.50443,539.88405z" id="imagebot_77" fill="#ddbfa0"/>
  <path fill="#000000" transform="translate(2.28271e-7 2.28271e-7)" d="M157.5513,537.93092L261.3332,537.93092L261.3332,589.82312L157.5513,589.82312L157.5513,537.93092z" id="imagebot_76" stroke-linejoin="round" stroke-linecap="round" stroke-width="6.27718" stroke="#1a1919"/>
  <path transform="translate(2.28271e-7 2.28271e-7)" d="M203.85399,537.49873L221.28696,537.49873L221.28696,584.36919L203.85399,584.36919L203.85399,537.49873z" id="imagebot_75" fill="#eb8b2d"/>
  <path transform="translate(2.28271e-7 2.28271e-7)" d="M203.85399,584.36919L221.28696,584.36919L221.28696,537.49873L203.85399,537.49873L203.85399,584.36919z" id="imagebot_74" stroke-linejoin="round" stroke-linecap="round" stroke-width="6.27718" stroke="#1a1919" fill-opacity="0"/>
  <path transform="matrix(1.29353 0 0 1.45231 -403.85 -359.835)" id="imagebot_73" d="M875.43318,464.15866C875.43318,464.15866 856.34299,471.71479 847.99104,482.85152C839.63909,493.98707 824.92413,516.25934 824.92413,516.25934L802.65186,493.98707L799.86827,495.1802L795.49304,490.01034C795.49304,490.01034 790.72169,490.80497 782.76705,507.90739C774.81241,525.0086 773.22196,530.17847 773.22196,530.17847L778.78913,536.14415L777.19868,543.30296C777.19868,543.30296 801.45872,572.73406 814.18591,579.89288C826.91309,587.0517 831.68564,580.29019 831.68564,580.29019C831.68564,580.29019 827.70773,609.72129 829.69668,627.22102C831.68564,644.71956 832.87878,658.24256 832.87878,658.24256C832.87878,658.24256 934.29417,664.20705 962.53213,662.6166C990.77008,661.02615 1013.0424,658.63988 1013.0424,658.63988L1009.8602,606.14188C1009.8602,606.14188 1032.9272,579.09706 1037.6997,568.75734C1042.4722,558.41643 1042.075,563.58628 1039.6887,557.22329C1037.3024,550.86029 1026.563,503.13484 1003.0988,479.66943C979.63454,456.20401 963.72526,454.21625 963.72526,454.21625C963.72526,454.21625 944.23896,471.31747 903.27382,471.31747C896.115,473.70375 885.37677,472.51061 879.41109,468.9312C873.44541,465.35179 875.43318,464.15866 875.43318,464.15866" fill="#fffffe"/>
  <path transform="matrix(1.29353 0 0 1.45231 -403.85 -359.835)" id="imagebot_72" d="M840.10441,714.6278C840.10441,714.6278 839.57227,717.44956 841.36794,721.73531C843.16361,726.02106 850.61952,730.4297 868.63826,726.56871C886.6582,722.70891 899.45459,720.15321 906.15166,716.04882C912.84755,711.94801 916.54149,715.80185 918.49943,712.5422C920.45736,709.27897 920.12687,702.66303 920.12687,702.66303L840.10441,714.6278" fill="#251d13"/>
  <path transform="matrix(1.29353 0 0 1.45231 -403.85 -359.835)" id="imagebot_71" d="M840.10441,714.6278C840.10441,714.6278 839.57227,717.44956 841.36794,721.73531C843.16361,726.02106 850.61952,730.4297 868.63826,726.56871C886.6582,722.70891 899.45459,720.15321 906.15166,716.04882C912.84755,711.94801 916.54149,715.80185 918.49943,712.5422C920.45736,709.27897 920.12687,702.66303 920.12687,702.66303L840.10441,714.6278z" stroke-linejoin="round" stroke-linecap="round" stroke-width="3.53884" stroke="#1a1919" fill-opacity="0"/>
  <path transform="matrix(1.29353 0 0 1.45231 -403.85 -359.835)" id="imagebot_70" d="M871.31686,689.81533C871.31686,689.81533 872.19023,693.13584 866.47869,695.37296C860.76595,697.61009 840.75109,697.66617 839.75482,708.95802C839.13081,716.02138 840.349,718.39334 849.43712,719.54948C858.38087,720.68416 865.95967,719.43256 874.49179,717.72876C895.64133,713.50148 901.06294,711.21781 904.91796,707.52864C908.77418,703.83469 917.20488,706.84736 918.18922,704.98368C919.17355,703.11403 919.82739,694.63202 919.82739,694.63202L916.6966,686.54375L871.31686,689.81533" fill="#492e25"/>
  <path transform="matrix(1.29353 0 0 1.45231 -403.85 -359.835)" id="imagebot_69" d="M871.31686,689.81533C871.31686,689.81533 872.19023,693.13584 866.47869,695.37296C860.76595,697.61009 840.75109,697.66617 839.75482,708.95802C839.13081,716.02138 840.349,718.39334 849.43712,719.54948C858.38087,720.68416 865.95967,719.43256 874.49179,717.72876C895.64133,713.50148 901.06294,711.21781 904.91796,707.52864C908.77418,703.83469 917.20488,706.84736 918.18922,704.98368C919.17355,703.11403 919.82739,694.63202 919.82739,694.63202L916.6966,686.54375L871.31686,689.81533z" stroke-linejoin="round" stroke-linecap="round" stroke-width="3.53884" stroke="#1a1919" fill-opacity="0"/>
  <path transform="matrix(1.29353 0 0 1.45231 -403.85 -359.835)" id="imagebot_68" d="M920.94178,708.57979C920.94178,708.57979 920.77116,716.60125 923.07869,719.01138C925.38741,721.42033 931.9938,721.5623 934.81199,722.09445C937.63256,722.62778 939.34591,730.68861 966.7093,731.27801C994.07149,731.86981 1000.246,730.11232 1001.71,727.78451C1003.1775,725.4567 1002.9305,715.06568 1002.9305,715.06568L931.38292,705.97398L920.94178,708.57979" fill="#251d13"/>
  <path transform="matrix(1.29353 0 0 1.45231 -403.85 -359.835)" id="imagebot_67" d="M920.94178,708.57979C920.94178,708.57979 920.77116,716.60125 923.07869,719.01138C925.38741,721.42033 931.9938,721.5623 934.81199,722.09445C937.63256,722.62778 939.34591,730.68861 966.7093,731.27801C994.07149,731.86981 1000.246,730.11232 1001.71,727.78451C1003.1775,725.4567 1002.9305,715.06568 1002.9305,715.06568L931.38292,705.97398L920.94178,708.57979z" stroke-linejoin="round" stroke-linecap="round" stroke-width="3.53884" stroke="#1a1919" fill-opacity="0"/>
  <path transform="matrix(1.29353 0 0 1.45231 -403.85 -359.835)" id="imagebot_66" d="M918.84902,696.26543C918.84902,696.26543 919.54939,707.60739 920.91314,709.99724C922.2769,712.38589 935.04704,711.24406 936.87373,714.11475C938.69803,716.98782 940.01048,721.73531 950.36929,722.9022C960.72811,724.07028 1001.7016,728.25819 1002.365,719.30251C1003.0296,710.34921 1004.5365,706.13267 989.04004,702.49718C973.54478,698.85692 967.70199,696.13538 967.70199,696.13538L918.84902,696.26543" fill="#492e25"/>
  <path transform="matrix(1.29353 0 0 1.45231 -403.85 -359.835)" id="imagebot_65" d="M918.84902,696.26543C918.84902,696.26543 919.54939,707.60739 920.91314,709.99724C922.2769,712.38589 935.04704,711.24406 936.87373,714.11475C938.69803,716.98782 940.01048,721.73531 950.36929,722.9022C960.72811,724.07028 1001.7016,728.25819 1002.365,719.30251C1003.0296,710.34921 1004.5365,706.13267 989.04004,702.49718C973.54478,698.85692 967.70199,696.13538 967.70199,696.13538L918.84902,696.26543z" stroke-linejoin="round" stroke-linecap="round" stroke-width="3.53884" stroke="#1a1919" fill-opacity="0"/>
  <path transform="matrix(1.29353 0 0 1.45231 -403.85 -359.835)" id="imagebot_64" d="M684.85828,358.81546C684.85828,358.81546 677.5193,352.41905 680.42101,349.1773C683.32272,345.93674 688.18117,356.37191 688.18117,356.37191L684.85828,358.81546" fill="#d8232a"/>
  <path transform="matrix(1.29353 0 0 1.45231 -403.85 -359.835)" id="imagebot_63" d="M684.85828,358.81546C684.85828,358.81546 677.5193,352.41905 680.42101,349.1773C683.32272,345.93674 688.18117,356.37191 688.18117,356.37191L684.85828,358.81546z" stroke-linejoin="round" stroke-linecap="round" stroke-width="2.83131" stroke="#1a1919" fill-opacity="0"/>
  <path transform="matrix(1.29353 0 0 1.45231 -403.85 -359.835)" id="imagebot_62" d="M708.92862,386.00226C708.92862,386.00226 689.88616,358.92284 688.18117,356.37191C687.41398,355.22411 684.51705,357.99935 684.85828,358.81546C685.81398,361.10031 706.32638,389.97183 706.32638,389.97183L708.92862,386.00226" fill="#949594"/>
  <path transform="matrix(1.29353 0 0 1.45231 -403.85 -359.835)" id="imagebot_61" d="M708.92862,386.00226C708.92862,386.00226 689.88616,358.92284 688.18117,356.37191C687.41398,355.22411 684.51705,357.99935 684.85828,358.81546C685.81398,361.10031 706.32638,389.97183 706.32638,389.97183L708.92862,386.00226z" stroke-linejoin="round" stroke-linecap="round" stroke-width="2.83131" stroke="#1a1919" fill-opacity="0"/>
  <path transform="matrix(1.29353 0 0 1.45231 -403.85 -359.835)" id="imagebot_60" d="M734.99506,422.34042C734.99506,422.34042 710.22078,387.10591 707.99916,383.78422C707.0017,382.29041 703.2302,385.90323 703.67524,386.96393C704.92087,389.93722 731.61014,427.50431 731.61014,427.50431L734.99506,422.34042" fill="#949594"/>
  <path transform="matrix(1.29353 0 0 1.45231 -403.85 -359.835)" id="imagebot_59" d="M734.99506,422.34042C734.99506,422.34042 710.22078,387.10591 707.99916,383.78422C707.0017,382.29041 703.2302,385.90323 703.67524,386.96393C704.92087,389.93722 731.61014,427.50431 731.61014,427.50431L734.99506,422.34042z" stroke-linejoin="round" stroke-linecap="round" stroke-width="2.83131" stroke="#1a1919" fill-opacity="0"/>
  <path transform="matrix(1.29353 0 0 1.45231 -403.85 -359.835)" id="imagebot_58" d="M777.78212,518.35449C777.78212,518.35449 764.51206,520.90303 761.96591,507.63177C759.41856,494.36171 764.11594,465.04754 768.17141,460.56731C774.45685,453.62206 775.36841,455.0586 777.53634,464.07275C779.43343,471.97728 793.52675,472.55475 794.59461,482.84794C795.37611,490.38618 795.37492,490.41601 789.54048,498.31457C783.70605,506.21194 777.78212,518.35449 777.78212,518.35449" fill="#f9d8b5"/>
  <path fill="#bf5f00" transform="matrix(1.29353 0 0 1.45231 -403.85 -359.835)" id="imagebot_57" d="M777.78212,518.35449C777.78212,518.35449 764.51206,520.90303 761.96591,507.63177C759.41856,494.36171 764.11594,465.04754 768.17141,460.56731C774.45685,453.62206 775.36841,455.0586 777.53634,464.07275C779.43343,471.97728 793.52675,472.55475 794.59461,482.84794C795.37611,490.38618 795.37492,490.41601 789.54048,498.31457C783.70605,506.21194 777.78212,518.35449 777.78212,518.35449z" stroke-linejoin="round" stroke-linecap="round" stroke-width="3.53884" stroke="#1a1919"/>
  <path transform="matrix(1.29353 0 0 1.45231 -403.85 -359.835)" id="imagebot_56" d="M949.45178,458.80863C949.45178,458.80863 907.71706,490.00318 888.74858,516.02548C869.78009,542.04898 863.33239,556.54201 863.33239,556.54201C863.33239,556.54201 854.2729,538.88479 863.51732,504.15497C872.75936,469.42874 881.79498,466.31823 881.79498,466.31823" fill="#fffffe"/>
  <path transform="matrix(1.29353 0 0 1.45231 -403.85 -359.835)" id="imagebot_55" d="M949.45178,458.80863C949.45178,458.80863 907.71706,490.00318 888.74858,516.02548C869.78009,542.04898 863.33239,556.54201 863.33239,556.54201C863.33239,556.54201 854.2729,538.88479 863.51732,504.15497C872.75936,469.42874 881.79498,466.31823 881.79498,466.31823M876.67642,462.90467C876.67642,462.90467 855.65336,474.72268 848.14138,494.85686C857.53613,496.94723 857.96805,498.84432 857.96805,498.84432C857.96805,498.84432 847.06636,500.9693 845.54034,506.12842C844.01074,511.28754 841.4097,522.55791 850.47873,539.74742C859.54776,556.93097 863.33239,556.54201 863.33239,556.54201C863.33239,556.54201 904.60655,524.86543 920.84872,515.77493C936.22228,507.17002 922.07526,502.58481 917.88139,500.13529C913.68512,497.6846 939.58095,500.60181 939.58095,500.60181L956.63803,453.77002M898.25549,469.03261L911.44919,491.97186L898.25549,469.03261zM870.03543,486.36054L898.25549,469.03261" stroke-linejoin="round" stroke-linecap="round" stroke-width="3.53884" stroke="#1a1919" fill-opacity="0"/>
  <path transform="matrix(1.29353 0 0 1.45231 -403.85 -359.835)" id="imagebot_54" d="M880.53622,480.92342L882.19945,491.34307L890.18034,493.40123L906.90453,483.85018L898.22566,470.44887L880.53622,480.92342" fill="#444f7e"/>
  <path id="imagebot_53" d="M 735.1501216998571 338.6146975154968 L 737.3015595806927 353.74726029575777 L 747.6250801213165 356.7363468209119 L 769.258321400208 342.8652605807396 L 758.031942799024 323.40240291155294 L 735.1501216998571 338.6146975154968 z" stroke-linejoin="round" stroke-linecap="round" stroke-width="3.53884" stroke="#1a1919" fill-opacity="0"/>
  <path transform="matrix(1.29353 0 0 1.45231 -403.85 -359.835)" id="imagebot_52" d="M881.931,525.79012L890.18034,493.40123L882.19945,491.34307C882.19945,491.34307 861.45797,512.13466 860.28989,522.49348C859.123,532.85348 863.33239,556.54201 863.33239,556.54201L881.931,525.79012" fill="#444f7e"/>
  <path transform="matrix(1.29353 0 0 1.45231 -403.85 -359.835)" id="imagebot_51" d="M881.931,525.79012L890.18034,493.40123L882.19945,491.34307C882.19945,491.34307 861.45797,512.13466 860.28989,522.49348C859.123,532.85348 863.33239,556.54201 863.33239,556.54201L881.931,525.79012z" stroke-linejoin="round" stroke-linecap="round" stroke-width="3.53884" stroke="#1a1919" fill-opacity="0"/>
  <path transform="matrix(1.29353 0 0 1.45231 -403.85 -359.835)" id="imagebot_50" d="M941.07715,584.64753C941.07715,584.64753 956.87069,596.31401 973.21189,604.68864C989.55189,613.06684 1001.3234,614.26475 1001.3234,614.26475L996.33249,626.89887C996.33249,626.89887 988.2812,628.14212 967.30587,615.89099C946.33172,603.63987 936.09461,596.81274 936.09461,596.81274L941.07715,584.64753" fill="#fffffe"/>
  <path transform="matrix(1.29353 0 0 1.45231 -403.85 -359.835)" id="imagebot_49" d="M941.07715,584.64753C941.07715,584.64753 956.87069,596.31401 973.21189,604.68864C989.55189,613.06684 1001.3234,614.26475 1001.3234,614.26475L996.33249,626.89887C996.33249,626.89887 988.2812,628.14212 967.30587,615.89099C946.33172,603.63987 936.09461,596.81274 936.09461,596.81274L941.07715,584.64753zM959.50991,451.94452C959.50991,451.94452 989.06271,460.62339 1005.2977,481.78844C1030.9334,515.20341 1039.4525,553.25611 1040.6957,561.30739C1041.9377,569.35629 1008.0503,608.74411 1008.0503,608.74411C1008.0503,608.74411 975.09824,604.73278 949.62836,582.00115C964.65949,563.4443 969.3509,553.86938 969.3509,553.86938C969.3509,553.86938 961.74227,545.44465 972.1321,545.19767C982.52313,544.9483 977.81382,544.37441 977.81382,544.37441C977.81382,544.37441 948.0737,544.67746 959.66383,510.47263M838.52827,524.85588C838.52827,524.85588 825.16515,575.5439 832.596,657.82735C886.6773,667.01689 1013.5685,659.36769 1013.5685,659.36769L1010.4389,607.38035M953.78286,586.337L949.90755,590.97234M995.58439,606.82554L990.29403,611.43105M929.24601,607.99124C929.24601,607.99124 921.68153,630.48305 940.74904,643.63618M867.97249,582.12881C867.89969,585.51733 865.09465,588.20188 861.70733,588.1291C858.32122,588.0575 855.63427,585.25125 855.70705,581.86513C855.78105,578.47782 858.5849,575.79088 861.97221,575.86485C865.35833,575.93765 868.04647,578.7427 867.97249,582.12881zM867.23036,616.56869C867.15876,619.95482 864.35252,622.64176 860.9652,622.56778C857.58028,622.49498 854.89333,619.69114 854.96492,616.30382C855.03892,612.91531 857.84396,610.23076 861.23127,610.30234C864.6162,610.37514 867.30434,613.18019 867.23036,616.56869zM876.67642,462.90467C876.67642,462.90467 856.45992,470.25797 837.48667,496.51651C828.09072,509.51931 824.06627,516.99311 824.06627,516.99311L802.41084,492.45508C802.41084,492.45508 780.51202,523.13658 776.78228,542.87701C795.18641,564.98464 815.01514,586.652 830.73471,579.91077M824.06627,516.99311C824.06627,516.99311 829.33755,513.33019 829.62629,521.83367" stroke-linejoin="round" stroke-linecap="round" stroke-width="3.53884" stroke="#1a1919" fill-opacity="0"/>
  <path transform="matrix(1.29353 0 0 1.45231 -403.85 -359.835)" id="imagebot_48" d="M799.94225,494.70295L795.37611,490.38618C795.37611,490.38618 782.80523,504.3065 776.3265,520.21339C772.3104,530.07108 773.72308,531.48376 773.72308,531.48376L777.87757,535.82081C777.87757,535.82081 784.31336,521.80146 790.20029,511.54287C796.08484,501.28787 799.94225,494.70295 799.94225,494.70295" fill="#fffffe"/>
  <path transform="matrix(1.29353 0 0 1.45231 -403.85 -359.835)" id="imagebot_47" d="M799.94225,494.70295L795.37611,490.38618C795.37611,490.38618 782.80523,504.3065 776.3265,520.21339C772.3104,530.07108 773.72308,531.48376 773.72308,531.48376L777.87757,535.82081C777.87757,535.82081 784.31336,521.80146 790.20029,511.54287C796.08484,501.28787 799.94225,494.70295 799.94225,494.70295z" stroke-linejoin="round" stroke-linecap="round" stroke-width="3.53884" stroke="#1a1919" fill-opacity="0"/>
  <path transform="matrix(1.29353 0 0 1.45231 -403.85 -359.835)" id="imagebot_46" d="M774.86968,478.17562C774.86968,478.17562 739.15076,427.37546 735.95076,422.5874C734.51303,420.43498 729.07353,425.64063 729.71424,427.17262C731.51111,431.45956 769.98975,485.62198 769.98975,485.62198L774.86968,478.17562" fill="#949594"/>
  <path transform="matrix(1.29353 0 0 1.45231 -403.85 -359.835)" id="imagebot_45" d="M774.86968,478.17562C774.86968,478.17562 739.15076,427.37546 735.95076,422.5874C734.51303,420.43498 729.07353,425.64063 729.71424,427.17262C731.51111,431.45956 769.98975,485.62198 769.98975,485.62198L774.86968,478.17562z" stroke-linejoin="round" stroke-linecap="round" stroke-width="2.83131" stroke="#1a1919" fill-opacity="0"/>
  <path transform="matrix(1.29353 0 0 1.45231 -403.85 -359.835)" id="imagebot_44" d="M759.7431,501.2115C759.7431,501.2115 758.61677,509.68277 766.20631,507.95869C773.79466,506.2358 779.61001,499.27981 774.50935,494.92129C769.41228,490.56515 764.62303,493.76634 764.62303,493.76634L759.7431,501.2115" fill="#f9d8b5"/>
  <path fill="#bf5f00" transform="matrix(1.29353 0 0 1.45231 -403.85 -359.835)" id="imagebot_43" d="M759.7431,501.2115C759.7431,501.2115 758.61677,509.68277 766.20631,507.95869C773.79466,506.2358 779.61001,499.27981 774.50935,494.92129C769.41228,490.56515 764.62303,493.76634 764.62303,493.76634L759.7431,501.2115z" stroke-linejoin="round" stroke-linecap="round" stroke-width="3.53884" stroke="#1a1919"/>
  <path transform="matrix(1.29353 0 0 1.45231 -403.85 -359.835)" id="imagebot_42" d="M751.97817,489.24554C751.97817,489.24554 753.10926,502.48578 767.86478,496.66804C782.62149,490.85031 774.72412,485.01587 767.6166,486.27821C760.50909,487.54174 751.97817,489.24554 751.97817,489.24554" fill="#f9d8b5"/>
  <path fill="#bf5f00" transform="matrix(1.29353 0 0 1.45231 -403.85 -359.835)" id="imagebot_41" d="M751.97817,489.24554C751.97817,489.24554 753.10926,502.48578 767.86478,496.66804C782.62149,490.85031 774.72412,485.01587 767.6166,486.27821C760.50909,487.54174 751.97817,489.24554 751.97817,489.24554z" stroke-linejoin="round" stroke-linecap="round" stroke-width="3.53884" stroke="#1a1919"/>
  <path transform="matrix(1.29353 0 0 1.45231 -403.85 -359.835)" id="imagebot_40" d="M742.59773,464.50109C742.59773,464.50109 753.00784,463.30914 756.22812,467.15343C759.44839,471.0001 760.8038,473.86005 750.86855,475.06272C740.93092,476.26421 737.6486,475.24766 737.27753,470.52284C736.90766,465.79444 742.59773,464.50109 742.59773,464.50109" fill="#f9d8b5"/>
  <path fill="#bf5f00" transform="matrix(1.29353 0 0 1.45231 -403.85 -359.835)" id="imagebot_39" d="M742.59773,464.50109C742.59773,464.50109 753.00784,463.30914 756.22812,467.15343C759.44839,471.0001 760.8038,473.86005 750.86855,475.06272C740.93092,476.26421 737.6486,475.24766 737.27753,470.52284C736.90766,465.79444 742.59773,464.50109 742.59773,464.50109z" stroke-linejoin="round" stroke-linecap="round" stroke-width="3.53884" stroke="#1a1919"/>
  <path transform="matrix(1.29353 0 0 1.45231 -403.85 -359.835)" id="imagebot_38" d="M756.03721,476.11746C756.03721,476.11746 771.17334,474.55445 769.12354,482.06286C768.33607,484.94906 762.44555,489.56053 752.95177,487.85076C744.01994,486.24241 743.2289,479.14445 748.4787,476.42648C753.7285,473.70733 756.03721,476.11746 756.03721,476.11746" fill="#f9d8b5"/>
  <path fill="#bf5f00" id="imagebot_37" d="M 574.1069188713116 331.6349533379645 C 574.1069188713116 331.6349533379645 593.6859569185158 329.36497815154496 591.034479150476 340.26951771908716 C 590.015863091349 344.46117508727025 582.3962988303514 351.15845947631306 570.1158097071882 348.6753432617754 C 558.562219760408 346.33952033608864 557.5389857992262 336.03108144305656 564.3297595267386 332.0837462005229 C 571.1205332542511 328.13469723208857 574.1069188713116 331.6349533379645 574.1069188713116 331.6349533379645 z M 622.4865573101325 355.7677140864224 C 622.4865573101325 355.7677140864224 627.6305638813682 342.1825296096416 620.4647570046278 333.78363158606 C 613.3004894285722 325.38646181148 610.2184084630484 326.6826049933047 603.680739748158 317.611374538836 C 597.1369138305278 308.54360058237023 603.3983104107232 300.4704702340217 596.0087099108739 303.7177484461398 C 588.6222009476943 306.96675490725954 587.8659515758987 314.4871360371442 591.3153691872258 325.5372115983339 L 597.9255661285061 331.18268945430236 C 597.9255661285061 331.18268945430236 590.9758305008503 343.35390483203844 604.1746224326224 355.32584874297095" stroke-linejoin="round" stroke-linecap="round" stroke-width="3.53884" stroke="#1a1919"/>
  <path transform="matrix(1.29353 0 0 1.45231 -403.85 -359.835)" id="imagebot_36" d="M911.08409,662.35053C911.08409,662.35053 914.0896,687.19401 915.38296,692.88647C916.67512,698.57773 916.67512,698.57773 916.67512,698.57773C916.67512,698.57773 956.28844,700.13835 967.65545,698.25796C979.02485,696.37759 979.02485,696.37759 979.02485,696.37759L981.89912,661.51414C981.89912,661.51414 971.03799,661.75396 947.90308,662.199C931.32803,662.51877 923.36027,662.1441 923.36027,662.1441L911.08409,662.35051" fill="#777776"/>
  <path transform="matrix(1.29353 0 0 1.45231 -403.85 -359.835)" id="imagebot_35" d="M911.08409,662.35053C911.08409,662.35053 914.0896,687.19401 915.38296,692.88647C916.67512,698.57773 916.67512,698.57773 916.67512,698.57773C916.67512,698.57773 956.28844,700.13835 967.65545,698.25796C979.02485,696.37759 979.02485,696.37759 979.02485,696.37759L981.89912,661.51414C981.89912,661.51414 971.03799,661.75396 947.90308,662.199C931.32803,662.51877 923.36027,662.1441 923.36027,662.1441L911.08409,662.35051L911.08409,662.35053z" stroke-linejoin="round" stroke-linecap="round" stroke-width="3.53884" stroke="#1a1919" fill-opacity="0"/>
  <path transform="matrix(1.29353 0 0 1.45231 -403.85 -359.835)" id="imagebot_34" d="M915.73494,687.46367C915.73494,687.46367 930.31864,689.66619 952.53245,688.25829C974.74507,686.85158 979.47347,686.47813 979.47347,686.47813" fill="#777776"/>
  <path transform="matrix(1.29353 0 0 1.45231 -403.85 -359.835)" id="imagebot_33" d="M915.73494,687.46367C915.73494,687.46367 930.31864,689.66619 952.53245,688.25829C974.74507,686.85158 979.47347,686.47813 979.47347,686.47813" stroke-linejoin="round" stroke-linecap="round" stroke-width="3.53884" stroke="#1a1919" fill-opacity="0"/>
  <path transform="matrix(1.29353 0 0 1.45231 -403.85 -359.835)" id="imagebot_32" d="M854.95299,660.66821C854.95299,660.66821 861.34939,692.4295 862.73463,693.87438C864.11867,695.32166 903.24518,697.58027 915.57266,695.01145C912.69602,675.12902 911.08409,662.35053 911.08409,662.35053L854.95299,660.66821" fill="#777776"/>
  <path transform="matrix(1.29353 0 0 1.45231 -403.85 -359.835)" id="imagebot_31" d="M854.95299,660.66821C854.95299,660.66821 861.34939,692.4295 862.73463,693.87438C864.11867,695.32166 903.24518,697.58027 915.57266,695.01145C912.69602,675.12902 911.08409,662.35053 911.08409,662.35053L854.95299,660.66821z" stroke-linejoin="round" stroke-linecap="round" stroke-width="3.53884" stroke="#1a1919" fill-opacity="0"/>
  <path transform="matrix(1.29353 0 0 1.45231 -403.85 -359.835)" id="imagebot_30" d="M861.54268,683.46546C861.54268,683.46546 869.54266,684.58343 892.64894,685.55345C912.50034,686.38746 914.39027,684.13362 914.39027,684.13362" fill="#777776"/>
  <path transform="matrix(1.29353 0 0 1.45231 -403.85 -359.835)" id="imagebot_29" d="M861.54268,683.46546C861.54268,683.46546 869.54266,684.58343 892.64894,685.55345C912.50034,686.38746 914.39027,684.13362 914.39027,684.13362" stroke-linejoin="round" stroke-linecap="round" stroke-width="3.53884" stroke="#1a1919" fill-opacity="0"/>
  <path transform="matrix(1.29353 0 0 1.45231 -403.85 -359.835)" id="imagebot_28" d="M845.78135,390.85236C845.78135,390.85236 832.19869,396.93019 832.81196,384.90935C833.42404,372.88731 838.34692,374.40856 838.34692,374.40856C838.34692,374.40856 822.10953,372.28716 828.74575,360.042C835.38078,347.79446 843.66592,357.53164 843.66592,357.53164C843.66592,357.53164 834.83313,340.35048 850.09215,338.5548C865.35356,336.75914 862.5485,351.92032 862.5485,351.92032L845.78135,390.85236" fill="#e3e4e2"/>
  <path fill="#b2b2b2" transform="matrix(1.29353 0 0 1.45231 -403.85 -359.835)" id="imagebot_27" d="M845.78135,390.85236C845.78135,390.85236 832.19869,396.93019 832.81196,384.90935C833.42404,372.88731 838.34692,374.40856 838.34692,374.40856C838.34692,374.40856 822.10953,372.28716 828.74575,360.042C835.38078,347.79446 843.66592,357.53164 843.66592,357.53164C843.66592,357.53164 834.83313,340.35048 850.09215,338.5548C865.35356,336.75914 862.5485,351.92032 862.5485,351.92032L845.78135,390.85236z" stroke-linejoin="round" stroke-linecap="round" stroke-width="3.53884" stroke="#1a1919"/>
  <path transform="matrix(1.29353 0 0 1.45231 -403.85 -359.835)" id="imagebot_26" d="M988.91595,401.54525C988.03184,442.48414 952.58256,472.44499 909.88499,471.52508C867.18741,470.60636 840.91336,446.21388 841.22357,405.26783C841.60418,354.65499 872.09716,324.86715 914.79236,325.78825C957.49112,326.70697 989.79649,360.60635 988.91595,401.54525" fill="#f9d8b5"/>
  <path fill="#d16304" transform="matrix(1.29353 0 0 1.45231 -403.85 -359.835)" id="imagebot_25" d="M988.91595,401.54525C988.03184,442.48414 952.58256,472.44499 909.88499,471.52508C867.18741,470.60636 840.91336,446.21388 841.22357,405.26783C841.60418,354.65499 872.09716,324.86715 914.79236,325.78825C957.49112,326.70697 989.79649,360.60635 988.91595,401.54525z" stroke-linejoin="round" stroke-linecap="round" stroke-width="3.53884" stroke="#1a1919"/>
  <path transform="matrix(1.29353 0 0 1.45231 -403.85 -359.835)" id="imagebot_24" d="M881.2342,382.35246C881.1829,384.72322 879.21899,386.6048 876.84704,386.55587C874.47509,386.50457 872.5947,384.53947 872.64362,382.16871C872.69492,379.79556 874.65883,377.91399 877.03198,377.96529C879.40393,378.01549 881.28551,379.9805 881.2342,382.35246" fill="#1a1919"/>
  <path transform="matrix(1.29353 0 0 1.45231 -403.85 -359.835)" id="imagebot_23" d="M881.2342,382.35246C881.1829,384.72322 879.21899,386.6048 876.84704,386.55587C874.47509,386.50457 872.5947,384.53947 872.64362,382.16871C872.69492,379.79556 874.65883,377.91399 877.03198,377.96529C879.40393,378.01549 881.28551,379.9805 881.2342,382.35246z" stroke-width="0.70753" stroke="#1a1919" fill-opacity="0"/>
  <path transform="matrix(1.29353 0 0 1.45231 -403.85 -359.835)" id="imagebot_22" d="M929.67793,384.81271C929.62663,387.18347 927.66152,389.06504 925.29076,389.01373C922.91761,388.96363 921.03842,386.99853 921.08854,384.62657C921.13984,382.25462 923.10374,380.37304 925.4757,380.42435C927.84646,380.47565 929.72803,382.43956 929.67793,384.81271" fill="#1a1919"/>
  <path transform="matrix(1.29353 0 0 1.45231 -403.85 -359.835)" id="imagebot_21" d="M929.67793,384.81271C929.62663,387.18347 927.66152,389.06504 925.29076,389.01373C922.91761,388.96363 921.03842,386.99853 921.08854,384.62657C921.13984,382.25462 923.10374,380.37304 925.4757,380.42435C927.84646,380.47565 929.72803,382.43956 929.67793,384.81271z" stroke-width="0.70753" stroke="#1a1919" fill-opacity="0"/>
  <path transform="matrix(1.29353 0 0 1.45231 -403.85 -359.835)" id="imagebot_20" d="M883.17305,364.04497C870.95653,355.99488 862.57475,367.14235 862.57475,367.14235C862.57475,367.14235 862.7215,350.86201 874.2472,351.11018C883.09311,351.30108 883.17305,364.04497 883.17305,364.04497" fill="#fffffe"/>
  <path fill="#b2b2b2" transform="matrix(1.29353 0 0 1.45231 -403.85 -359.835)" id="imagebot_19" d="M883.17305,364.04497C870.95653,355.99488 862.57475,367.14235 862.57475,367.14235C862.57475,367.14235 862.7215,350.86201 874.2472,351.11018C883.09311,351.30108 883.17305,364.04497 883.17305,364.04497z" stroke-linejoin="round" stroke-linecap="round" stroke-width="3.53884" stroke="#1a1919"/>
  <path transform="matrix(1.29353 0 0 1.45231 -403.85 -359.835)" id="imagebot_18" d="M936.14711,369.78873C927.23557,356.14521 911.47782,364.65586 911.47782,364.65586C911.47782,364.65586 911.08409,350.133 924.52954,350.42293C937.97261,350.71167 936.14711,369.78873 936.14711,369.78873" fill="#fffffe"/>
  <path fill="#b2b2b2" transform="matrix(1.29353 0 0 1.45231 -403.85 -359.835)" id="imagebot_17" d="M936.14711,369.78873C927.23557,356.14521 911.47782,364.65586 911.47782,364.65586C911.47782,364.65586 911.08409,350.133 924.52954,350.42293C937.97261,350.71167 936.14711,369.78873 936.14711,369.78873z" stroke-linejoin="round" stroke-linecap="round" stroke-width="3.53884" stroke="#1a1919"/>
  <path transform="matrix(1.29353 0 0 1.45231 -403.85 -359.835)" id="imagebot_16" d="M921.9822,402.93525C921.84976,409.09064 916.75149,413.97295 910.5961,413.84171C904.4407,413.70808 899.55839,408.611 899.69083,402.45561C899.82327,396.29903 904.92034,391.41791 911.07573,391.55034C917.23232,391.68279 922.11344,396.78105 921.9822,402.93525" fill="#fffffe"/>
  <path transform="matrix(1.29353 0 0 1.45231 -403.85 -359.835)" id="imagebot_15" d="M921.9822,402.93525C921.84976,409.09064 916.75149,413.97295 910.5961,413.84171C904.4407,413.70808 899.55839,408.611 899.69083,402.45561C899.82327,396.29903 904.92034,391.41791 911.07573,391.55034C917.23232,391.68279 922.11344,396.78105 921.9822,402.93525z" stroke-linejoin="round" stroke-linecap="round" stroke-width="3.53884" stroke="#1a1919" fill-opacity="0"/>
  <path transform="matrix(1.29353 0 0 1.45231 -403.85 -359.835)" id="imagebot_14" d="M879.21423,399.89037C879.08178,406.04457 873.98471,410.92807 867.82932,410.79563C861.67393,410.66319 856.79042,405.56611 856.92405,399.41073C857.05649,393.25534 862.15476,388.37302 868.31015,388.50427C874.46554,388.63789 879.34786,393.73498 879.21423,399.89037" fill="#fffffe"/>
  <path transform="matrix(1.29353 0 0 1.45231 -403.85 -359.835)" id="imagebot_13" d="M879.21423,399.89037C879.08178,406.04457 873.98471,410.92807 867.82932,410.79563C861.67393,410.66319 856.79042,405.56611 856.92405,399.41073C857.05649,393.25534 862.15476,388.37302 868.31015,388.50427C874.46554,388.63789 879.34786,393.73498 879.21423,399.89037zM880.34889,396.55197C880.34889,396.55197 888.34649,386.8124 899.77912,398.38582" stroke-linejoin="round" stroke-linecap="round" stroke-width="3.53884" stroke="#1a1919" fill-opacity="0"/>
  <path transform="matrix(1.29353 0 0 1.45231 -403.85 -359.835)" id="imagebot_12" d="M864.98488,419.58427C864.98488,419.58427 846.67143,420.86928 852.25889,435.23942C856.28334,445.59107 867.77324,438.05164 867.77324,438.05164C867.77324,438.05164 867.86154,450.85757 880.28327,448.9414C886.32054,448.00836 888.57318,442.0391 888.57318,442.0391C888.57318,442.0391 892.19436,452.52797 901.48173,450.81343C911.78685,448.91157 913.394,440.09668 913.394,440.09668C913.394,440.09668 924.67868,451.48993 931.00231,444.37049C937.16843,437.42166 935.4885,431.2794 930.30552,427.36352C917.76446,417.88883 902.15108,419.67615 902.15108,419.67615" fill="#e3e4e2"/>
  <path fill="#b2b2b2" transform="translate(0 1.95313) matrix(1.29353 0 0 1.45231 -403.85 -359.835)" id="imagebot_11" d="M864.98488,419.58427C864.98488,419.58427 846.67143,420.86928 852.25889,435.23942C856.28334,445.59107 867.77324,438.05164 867.77324,438.05164C867.77324,438.05164 867.86154,450.85757 880.28327,448.9414C886.32054,448.00836 888.57318,442.0391 888.57318,442.0391C888.57318,442.0391 892.19436,452.52797 901.48173,450.81343C911.78685,448.91157 913.394,440.09668 913.394,440.09668C913.394,440.09668 924.67868,451.48993 931.00231,444.37049C937.16843,437.42166 935.4885,431.2794 930.30552,427.36352C917.76446,417.88883 902.15108,419.67615 902.15108,419.67615" stroke-linejoin="round" stroke-linecap="round" stroke-width="3.53884" stroke="#1a1919"/>
  <path transform="matrix(1.29353 0 0 1.45231 -403.85 -359.835)" id="imagebot_10" d="M974.59831,408.84724C974.59831,408.84724 981.64021,394.1311 993.56441,399.34391C1005.4874,404.55672 999.23896,422.4478 992.88552,430.83436C985.23512,440.93545 972.75253,445.26892 969.51794,431.03958" fill="#f9d8b5"/>
  <path fill="#bf5f00" transform="matrix(1.29353 0 0 1.45231 -403.85 -359.835)" id="imagebot_9" d="M974.59831,408.84724C974.59831,408.84724 981.64021,394.1311 993.56441,399.34391C1005.4874,404.55672 999.23896,422.4478 992.88552,430.83436C985.23512,440.93545 972.75253,445.26892 969.51794,431.03958" stroke-linejoin="round" stroke-linecap="round" stroke-width="3.53884" stroke="#1a1919"/>
  <path transform="matrix(1.29353 0 0 1.45231 -403.85 -359.835)" id="imagebot_8" d="M880.99558,399.3976C880.99558,399.3976 863.1904,404.32406 866.43096,418.19905C869.67152,432.07522 911.95389,424.84362 898.38196,413.93239" fill="#f9d8b5"/>
  <path fill="#bf5a01" transform="matrix(1.29353 0 0 1.45231 -403.85 -359.835)" id="imagebot_7" d="M880.99558,399.3976C880.99558,399.3976 863.1904,404.32406 866.43096,418.19905C869.67152,432.07522 911.95389,424.84362 898.38196,413.93239" stroke-linejoin="round" stroke-linecap="round" stroke-width="3.53884" stroke="#1a1919"/>
  <path transform="matrix(1.29353 0 0 1.45231 -403.85 -359.835)" id="imagebot_6" d="M974.26662,407.77819C974.26662,407.77819 966.21295,403.71079 967.78073,396.66532C969.34852,389.61865 974.39429,385.47966 974.39429,385.47966C974.39429,385.47966 963.83145,382.77482 964.40774,372.5222C964.98163,362.26839 970.65858,361.68256 970.65858,361.68256C970.65858,361.68256 960.05041,361.10031 961.9809,353.70764C963.90901,346.31616 972.72509,347.92212 972.72509,347.92212C972.72509,347.92212 973.60801,339.79805 985.98442,340.42087C998.35962,341.04011 1002.7325,351.75448 997.55545,361.90687C1006.1854,355.72285 1016.7685,357.3658 1018.3948,364.1273C1020.0186,370.88761 1013.5137,377.11816 1013.5137,377.11816C1013.5137,377.11816 1027.2049,382.37036 1023.814,391.85459C1019.4197,404.14986 1009.8937,397.21774 1009.8937,397.21774C1009.8937,397.21774 1019.4805,412.29183 1006.9669,418.04035C997.37409,422.4478 999.1984,417.16579 999.1984,417.16579C999.1984,417.16579 1002.748,400.2507 991.09581,398.93705C981.22261,397.82624 974.26662,407.77819 974.26662,407.77819" fill="#e3e4e2"/>
  <path fill="#b2b2b2" transform="matrix(1.29353 0 0 1.45231 -403.85 -359.835)" id="imagebot_5" d="M974.26662,407.77819C974.26662,407.77819 966.21295,403.71079 967.78073,396.66532C969.34852,389.61865 974.39429,385.47966 974.39429,385.47966C974.39429,385.47966 963.83145,382.77482 964.40774,372.5222C964.98163,362.26839 970.65858,361.68256 970.65858,361.68256C970.65858,361.68256 960.05041,361.10031 961.9809,353.70764C963.90901,346.31616 972.72509,347.92212 972.72509,347.92212C972.72509,347.92212 973.60801,339.79805 985.98442,340.42087C998.35962,341.04011 1002.7325,351.75448 997.55545,361.90687C1006.1854,355.72285 1016.7685,357.3658 1018.3948,364.1273C1020.0186,370.88761 1013.5137,377.11816 1013.5137,377.11816C1013.5137,377.11816 1027.2049,382.37036 1023.814,391.85459C1019.4197,404.14986 1009.8937,397.21774 1009.8937,397.21774C1009.8937,397.21774 1019.4805,412.29183 1006.9669,418.04035C997.37409,422.4478 999.1984,417.16579 999.1984,417.16579C999.1984,417.16579 1002.748,400.2507 991.09581,398.93705C981.22261,397.82624 974.26662,407.77819 974.26662,407.77819z" stroke-linejoin="round" stroke-linecap="round" stroke-width="3.53884" stroke="#1a1919"/>
  <path transform="matrix(1.29353 0 0 1.45231 -403.85 -359.835)" id="imagebot_4" d="M871.59247,457.95673C871.59247,457.95673 879.22616,480.84705 906.73153,470.04081" fill="#f9d8b5"/>
  <path fill="#bf5f00" id="imagebot_3" d="M 721.6279877564187 303.3068168834061 C 721.6279877564187 303.3068168834061 731.5023946854398 336.5506594750734 767.0814155931897 320.85664813893754 M 875.4636932367322 240.53772810417126 C 875.4636932367322 240.53772810417126 867.581775223703 237.60236252907225 862.4763417166897 249.13416934555482" stroke-linejoin="round" stroke-linecap="round" stroke-width="3.53884" stroke="#1a1919"/>
  <title/>
 </g>
</svg>